<?xml version="1.0" encoding="utf-8"?>
<!-- Generator: Adobe Illustrator 16.0.0, SVG Export Plug-In . SVG Version: 6.00 Build 0)  -->
<!DOCTYPE svg PUBLIC "-//W3C//DTD SVG 1.1//EN" "http://www.w3.org/Graphics/SVG/1.1/DTD/svg11.dtd">
<svg version="1.1" id="Layer_1" xmlns="http://www.w3.org/2000/svg" xmlns:xlink="http://www.w3.org/1999/xlink" x="0px" y="0px"
	 viewBox="0 0 400 400" enable-background="new 0 0 400 400" xml:space="preserve">
<path fill="#222222" d="M400,400H0V0h400V400z M349.872,320.205v-12.523l-3.579-3.58h-16.102l-12.523-3.577l-3.58-7.158V103.721
	l3.58-7.155l12.523-3.58h16.102l3.579-3.577V76.884l-3.579-3.579h-26.838l-35.781,3.579l-35.783-3.579h-28.625l-3.579,3.579v12.524
	l3.579,3.577h15.387l12.523,3.58l3.576,7.155v74.07l-3.576,3.578h-88.025l-3.578-3.578v-74.07l3.578-7.155l12.524-3.58h15.386
	l3.578-3.577V76.884l-3.578-3.579h-26.837l-35.783,3.579L88.66,73.306H60.034l-3.579,3.579v12.524l3.579,3.577h16.102l12.524,3.58
	l3.579,7.155v189.646l-3.579,7.158l-12.524,3.577H60.034l-3.579,3.58v12.523l3.579,3.577H88.66l35.782-3.577l35.783,3.577h26.837
	l3.578-3.577v-12.523l-3.578-3.58h-15.386l-12.524-3.577l-3.578-7.158v-84.802l3.578-3.58h88.025l3.576,3.58v84.802l-3.576,7.158
	l-12.523,3.577h-15.387l-3.579,3.58v12.523l3.579,3.577h28.625l35.783-3.577l35.781,3.577h26.838L349.872,320.205z"/>
</svg>
